<svg xmlns="http://www.w3.org/2000/svg" viewBox="0 0 750 500">

  <g id="freepik--Car--inject-108">
    <g>
      <animateTransform 
        attributeName="transform" 
        type="translate" 
        values="0 0; 0 -3; 0 0; 0 3; 0 0" 
        dur="0.3s" 
        repeatCount="indefinite" 
        additive="sum" 
      />
      <path
        d="M609.9,401.56s58.44-5.45,60.13-6.39c1.69-.94,4.13-2.82,4.13-2.82l28.38,.38,.38-6.76-24.43-.38-40.03,4.13v-4.32s-1.88-27.25-22.17-43.78-31.76-18.79-59.57-17.85c-27.81,.94-58.82,43.41-63.33,51.68-4.51,8.27-6.39,9.77-6.39,9.77H210.96l-.24-8.37c-.75-25.83-18.6-48-43.68-54.24h0c-11.42-2.84-23.44-2.12-34.43,2.08l-11.67,4.45c-24.97,9.52-40.3,34.97-36.66,61.44,1.05,7.61,.93,12.61-1.66,10.8-8.08-5.64-.19,5.07,6.58,6.76,6.76,1.69,14.66,2.44,14.66,2.44H233.13l274.08-.63,102.69-8.39Z"
        style="fill:#263238; stroke:#263238; stroke-miterlimit:10;"></path>
      <path
        d="M314.96,226.88s-95.76,63.47-98.33,63.47-4.04-1.1-5.87,.37c-1.83,1.47-3.67,2.2-3.67,2.2l-102.36,12.11s-36.69,7.34-44.03,9.54c-7.34,2.2-13.57,9.17-13.21,12.11s4.04,27.88,4.04,27.88l4.04,31.92s-2.2,11.37-.37,12.84c1.83,1.47,10.27,4.4,14.68,5.5,4.4,1.1,16.88,1.1,16.88,1.1,0,0,1.1-20.55,5.14-36.69,4.04-16.14,16.1-34.9,53.57-36.69,38.52-1.83,55.77,43.66,55.77,43.66l7.7,28.62,14.68,5.14H507.21s-1.1-31.92,5.14-44.76c6.24-12.84,23.11-27.15,43.66-29.72,20.55-2.57,37.79,3.67,46.96,7.34,9.17,3.67,19.81,28.62,21.28,36.69,1.47,8.07,3.3,8.44,3.3,8.44,0,0,66.41-3.67,70.44-6.97,4.04-3.3,9.54-18.34,10.64-39.26,1.1-20.91-.37-40.72-2.57-44.03-2.2-3.3-6.97-3.67-6.97-3.67l-83.28-5.5s-76.31-62.37-80.72-63.47c-1.82-.45-4.44-1.09-6.9-1.69-4.41-1.07-8.92-1.69-13.46-1.86l-43.11-1.58-60.17,.37s-61.64-.73-96.49,6.6Z"
        style="fill:#92E3A9; stroke:#263238; stroke-miterlimit:10;"></path>
      <polygon points="693.36 311.31 190 311.31 70.96 318.5 693.36 318.5 693.36 311.31" style="fill:#fff; opacity:.62;">
      </polygon>
      <path d="M621.31,365.57h96.21c1.78,0,3.22-1.44,3.22-3.22v-8.6c0-1.78-1.44-3.22-3.22-3.22h-102.81l6.6,15.04Z"
        style="fill:#263238; stroke:#263238; stroke-miterlimit:10;"></path>
      <path d="M89,371.8H43.92c-2.28,0-4.13-1.85-4.13-4.13v-6.79c0-2.28,1.85-4.13,4.13-4.13h50.17l-5.1,15.04Z"
        style="fill:#263238; stroke:#263238; stroke-miterlimit:10;"></path>
      <g>
        <rect x="197.56" y="353.09" width="38.16" height="6.98"
          style="fill:#263238; stroke:#263238; stroke-miterlimit:10;"></rect>
        <rect x="238.65" y="353.09" width="156.66" height="6.98"
          style="fill:#263238; stroke:#263238; stroke-miterlimit:10;"></rect>
        <polygon points="398.25 353.09 398.25 360.07 503.54 360.07 507.21 353.09 398.25 353.09"
          style="fill:#263238; stroke:#263238; stroke-miterlimit:10;"></polygon>
      </g>
      <g>
        <path
          d="M69.88,404.82c4.4,1.1,16.88,1.1,16.88,1.1,0,0,.43-8.02,1.74-17.98H55.31c-.52,3.12-1.53,10.23-.11,11.37,1.83,1.47,10.27,4.4,14.68,5.5Z"
          style="fill:#263238; stroke:#263238; stroke-miterlimit:10;"></path>
        <path d="M507.36,394.18H206.07l2.86,10.64,14.68,5.14H507.21s-.24-7.01,.14-15.78Z"
          style="fill:#263238; stroke:#263238; stroke-miterlimit:10;"></path>
      </g>
      <rect x="364.13" y="309.8" width="25.68" height="4.77"
        style="fill:#263238; stroke:#263238; stroke-miterlimit:10;"></rect>
      <rect x="509.78" y="309.8" width="25.68" height="4.77"
        style="fill:#263238; stroke:#263238; stroke-miterlimit:10;"></rect>
      <path
        d="M238.28,292.92c7.34-2.57,77.41-57.23,78.88-62.74,.42-1.59,.47-2.83,.34-3.81-.86,.17-1.71,.33-2.54,.51,0,0-95.76,63.47-98.33,63.47,0,0,14.31,5.14,21.65,2.57Z"
        style="fill:#878787; stroke:#263238; stroke-miterlimit:10;"></path>
      <path
        d="M608.84,288.52c1.47,.37,10.27,.37,10.27,.37l-.11-.16-3.19-.21s-76.31-62.37-80.72-63.47c0,0,5.14,5.14,9.17,8.44,4.04,3.3,63.1,54.67,64.57,55.03Z"
        style="fill:#878787; stroke:#263238; stroke-miterlimit:10;"></path>
      <path
        d="M705.67,310.44c-2.52-.19-4.71,1.7-4.89,4.22l-1.14,15.4c-.19,2.52,1.7,4.71,4.22,4.89l3.33,.25c.6,.04,1.17-.04,1.71-.21,.25-9.12,.04-17.69-.49-24.35l-2.74-.2Z"
        style="fill:#fff; stroke:#263238; stroke-miterlimit:10;"></path>
      <g>
        <animateTransform attributeName="transform" type="rotate" from="0 143.69 393.76" to="360 143.69 393.76" dur="0.6s"
          repeatCount="indefinite" />
        <circle cx="143.69" cy="393.76" r="49.22" transform="translate(-275.08 375.82) rotate(-67.5)"
          style="fill:#263238; stroke:#263238; stroke-miterlimit:10;"></circle>
        <circle cx="143.69" cy="393.76" r="30.53" transform="translate(-257.99 273.99) rotate(-53.35)"
          style="fill:#fff; stroke:#263238; stroke-miterlimit:10;"></circle>
        <circle cx="143.69" cy="393.76" r="18.01" transform="translate(-61.22 28.1) rotate(-9.22)"
          style="fill:#fff; stroke:#263238; stroke-miterlimit:10;"></circle>
        <path
          d="M147.21,386.89c0-1.46-1.18-2.65-2.65-2.65s-2.65,1.18-2.65,2.65,1.18,2.65,2.65,2.65,2.65-1.18,2.65-2.65Z"
          style="fill:#263238; stroke:#263238; stroke-miterlimit:10;"></path>
        <path
          d="M138.24,394.11c0-1.46-1.18-2.65-2.65-2.65s-2.65,1.18-2.65,2.65,1.18,2.65,2.65,2.65,2.65-1.18,2.65-2.65Z"
          style="fill:#263238; stroke:#263238; stroke-miterlimit:10;"></path>
        <path
          d="M153.69,396.53c0-1.46-1.18-2.65-2.65-2.65s-2.65,1.18-2.65,2.65,1.18,2.65,2.65,2.65,2.65-1.18,2.65-2.65Z"
          style="fill:#263238; stroke:#263238; stroke-miterlimit:10;"></path>
        <circle cx="142.43" cy="402.33" r="2.65" style="fill:#263238; stroke:#263238; stroke-miterlimit:10;"></circle>
      </g>
      <g>
        <animateTransform attributeName="transform" type="rotate" from="0 565.02 393.76" to="360 565.02 393.76" dur="0.6s"
          repeatCount="indefinite" />
        <circle cx="565.02" cy="393.76" r="49.22" transform="translate(-76.88 144.24) rotate(-13.63)"
          style="fill:#263238; stroke:#263238; stroke-miterlimit:10;"></circle>
        <circle cx="565.02" cy="393.76" r="30.53" transform="translate(-77.25 145.2) rotate(-13.72)"
          style="fill:#fff; stroke:#263238; stroke-miterlimit:10;"></circle>
        <circle cx="565.02" cy="393.76" r="18.01" transform="translate(-55.51 95.03) rotate(-9.17)"
          style="fill:#fff; stroke:#263238; stroke-miterlimit:10;"></circle>
        <g>
          <path
            d="M568.54,386.89c0-1.46-1.18-2.65-2.65-2.65s-2.65,1.18-2.65,2.65,1.18,2.65,2.65,2.65,2.65-1.18,2.65-2.65Z"
            style="fill:#263238; stroke:#263238; stroke-miterlimit:10;"></path>
          <path
            d="M559.57,394.11c0-1.46-1.18-2.65-2.65-2.65s-2.65,1.18-2.65,2.65,1.18,2.65,2.65,2.65,2.65-1.18,2.65-2.65Z"
            style="fill:#263238; stroke:#263238; stroke-miterlimit:10;"></path>
          <circle cx="572.37" cy="396.53" r="2.65" style="fill:#263238; stroke:#263238; stroke-miterlimit:10;"></circle>
          <path
            d="M566.4,402.33c0-1.46-1.18-2.65-2.65-2.65s-2.65,1.18-2.65,2.65,1.18,2.65,2.65,2.65,2.65-1.18,2.65-2.65Z"
            style="fill:#263238; stroke:#263238; stroke-miterlimit:10;"></path>
        </g>
      </g>
      <path
        d="M330.05,235.69s-77,59.51-76.03,60.73,5.1,.73,5.1,.73l288.1-7.04s6.07-8.5,5.83-13.12c-.24-4.62-7.29-12.39-7.29-12.39,0,0-28.42-31.58-35.95-33.77-7.53-2.19-112.47-.73-112.47-.73l-59.03,3.64s-5.34,.73-8.26,1.94Z"
        style="fill:#5c5c5c; stroke:#263238; stroke-miterlimit:10;"></path>
      <path d="M388.66,293.98l27.4-.67,11.28-63.52c-9.17,.07-17.12,.16-22.54,.22l-16.15,63.97Z"
        style="fill:#263238; stroke:#263238; stroke-miterlimit:10;"></path>
      <line x1="416.77" y1="232.53" x2="405.35" y2="289.86" style="fill:none; stroke:#878787; stroke-miterlimit:10;">
      </line>
      <path d="M503.55,230.21l6.73,44.59-2.85,16.28,8.75-.21-7.36-60.22c-1.14-.17-2.94-.31-5.28-.43Z"
        style="fill:#263238; stroke:#263238; stroke-miterlimit:10;"></path>
      <path d="M278.55,281.6l-8.26,14.09s1.7,2.19,4.13,.73c2.43-1.46,9.96-8.02,9.96-8.02l-5.83-6.8Z"
        style="fill:#878787; stroke:#263238; stroke-miterlimit:10;"></path>
      <path d="M281.6,271.36h4.2v19.43h-4.2c-1.97,0-3.58-1.6-3.58-3.58v-12.28c0-1.97,1.6-3.58,3.58-3.58Z"
        transform="translate(-42.17 49.89) rotate(-9.41)" style="fill:#878787; stroke:#263238; stroke-miterlimit:10;">
      </path>
      <g>
        <path d="M357.74,227.46c-11.96,.94-23.3,2.2-27.73,3.83-11.01,4.04-81.45,65.67-81.45,65.67"
          style="fill:none; stroke:#263238; stroke-miterlimit:10;"></path>
        <path
          d="M539.82,323.95c2.01-1.58,3.54-3.15,4.45-4.98,3.3-6.6,7.34-26.78,7.34-26.78,0,0,9.54-11.74,3.67-23.85-5.87-12.11-28.62-33.39-34.12-37.06-5.5-3.67-15.41-5.5-18.34-5.5s-108.23-.37-108.23-.37c0,0-13.88,.48-28.96,1.47"
          style="fill:none; stroke:#263238; stroke-miterlimit:10;"></path>
        <path d="M462.77,387.95h36.37s4.77-34.85,17.61-46.96c7.08-6.67,13.71-10.67,18.79-14.02"
          style="fill:none; stroke:#263238; stroke-miterlimit:10;"></path>
        <line x1="248.13" y1="387.95" x2="456.22" y2="387.95" style="fill:none; stroke:#263238; stroke-miterlimit:10;">
        </line>
        <path d="M236.68,321.52c-.62,14.43,.01,40.67,.87,48.08,1.1,9.54,2.57,18.34,2.57,18.34h3.53"
          style="fill:none; stroke:#263238; stroke-miterlimit:10;"></path>
        <path d="M243.42,301.73s-4.04,4.4-5.87,11.01" style="fill:none; stroke:#263238; stroke-miterlimit:10;"></path>
        <path d="M396.7,343.53c-.48,17.47-.65,42.21-.65,42.21" style="fill:none; stroke:#263238; stroke-miterlimit:10;">
        </path>
        <path d="M404.85,296.22s-6.24,24.21-7.34,31.19c-.25,1.6-.47,5.53-.65,10.64"
          style="fill:none; stroke:#263238; stroke-miterlimit:10;"></path>
        <line x1="212.08" y1="300.11" x2="227" y2="298.69" style="fill:none; stroke:#263238; stroke-miterlimit:10;">
        </line>
        <line x1="60.71" y1="314.57" x2="202.92" y2="300.99" style="fill:none; stroke:#263238; stroke-miterlimit:10;">
        </line>
      </g>
    </g>
  </g>
</svg>